<mxfile host="app.diagrams.net" modified="2022-04-03T15:19:52.307Z" agent="5.0 (Macintosh; Intel Mac OS X 10_15_7) AppleWebKit/537.36 (KHTML, like Gecko) Chrome/99.0.4844.83 Safari/537.36" etag="i8Xl-fkEwjrMXy-p-kS1" version="17.4.0" type="github">
  <diagram id="tSXa933iV-H4p-sHi9MJ" name="Page-1">
    <mxGraphModel dx="402" dy="813" grid="1" gridSize="10" guides="1" tooltips="1" connect="1" arrows="1" fold="1" page="1" pageScale="1" pageWidth="850" pageHeight="1100" math="0" shadow="0">
      <root>
        <mxCell id="0" />
        <mxCell id="1" parent="0" />
        <mxCell id="I66DchT4x0AkGHDDOi4h-74" value="store.db" style="shape=table;startSize=30;container=1;collapsible=0;childLayout=tableLayout;fontColor=default;spacingRight=2;spacingLeft=2;fontStyle=1;fontSize=14;" parent="1" vertex="1">
          <mxGeometry x="611" y="180" width="160" height="289" as="geometry" />
        </mxCell>
        <mxCell id="I66DchT4x0AkGHDDOi4h-75" value="" style="shape=tableRow;horizontal=0;startSize=0;swimlaneHead=0;swimlaneBody=0;top=0;left=0;bottom=0;right=0;collapsible=0;dropTarget=0;fillColor=none;points=[[0,0.5],[1,0.5]];portConstraint=eastwest;fontColor=default;spacingRight=2;spacingLeft=2;" parent="I66DchT4x0AkGHDDOi4h-74" vertex="1">
          <mxGeometry y="30" width="160" height="38" as="geometry" />
        </mxCell>
        <mxCell id="I66DchT4x0AkGHDDOi4h-76" value="..." style="shape=partialRectangle;html=1;whiteSpace=wrap;connectable=0;overflow=hidden;fillColor=none;top=0;left=0;bottom=0;right=0;pointerEvents=1;fontColor=default;align=center;spacingRight=2;spacingLeft=2;" parent="I66DchT4x0AkGHDDOi4h-75" vertex="1">
          <mxGeometry width="80" height="38" as="geometry">
            <mxRectangle width="80" height="38" as="alternateBounds" />
          </mxGeometry>
        </mxCell>
        <mxCell id="I66DchT4x0AkGHDDOi4h-77" value="..." style="shape=partialRectangle;html=1;whiteSpace=wrap;connectable=0;overflow=hidden;fillColor=none;top=0;left=0;bottom=0;right=0;pointerEvents=1;fontColor=default;align=right;spacingRight=2;spacingLeft=2;" parent="I66DchT4x0AkGHDDOi4h-75" vertex="1">
          <mxGeometry x="80" width="80" height="38" as="geometry">
            <mxRectangle width="80" height="38" as="alternateBounds" />
          </mxGeometry>
        </mxCell>
        <mxCell id="I66DchT4x0AkGHDDOi4h-84" value="" style="shape=tableRow;horizontal=0;startSize=0;swimlaneHead=0;swimlaneBody=0;top=0;left=0;bottom=0;right=0;collapsible=0;dropTarget=0;fillColor=none;points=[[0,0.5],[1,0.5]];portConstraint=eastwest;fontColor=default;spacingRight=2;spacingLeft=2;" parent="I66DchT4x0AkGHDDOi4h-74" vertex="1">
          <mxGeometry y="68" width="160" height="36" as="geometry" />
        </mxCell>
        <mxCell id="I66DchT4x0AkGHDDOi4h-85" value="meddle" style="shape=partialRectangle;html=1;whiteSpace=wrap;connectable=0;overflow=hidden;fillColor=none;top=0;left=0;bottom=0;right=0;pointerEvents=1;fontColor=default;align=center;spacingRight=2;spacingLeft=2;" parent="I66DchT4x0AkGHDDOi4h-84" vertex="1">
          <mxGeometry width="80" height="36" as="geometry">
            <mxRectangle width="80" height="36" as="alternateBounds" />
          </mxGeometry>
        </mxCell>
        <mxCell id="I66DchT4x0AkGHDDOi4h-86" value="6652" style="shape=partialRectangle;html=1;whiteSpace=wrap;connectable=0;overflow=hidden;fillColor=none;top=0;left=0;bottom=0;right=0;pointerEvents=1;fontColor=default;align=right;spacingRight=2;spacingLeft=2;" parent="I66DchT4x0AkGHDDOi4h-84" vertex="1">
          <mxGeometry x="80" width="80" height="36" as="geometry">
            <mxRectangle width="80" height="36" as="alternateBounds" />
          </mxGeometry>
        </mxCell>
        <mxCell id="I66DchT4x0AkGHDDOi4h-99" value="" style="shape=tableRow;horizontal=0;startSize=0;swimlaneHead=0;swimlaneBody=0;top=0;left=0;bottom=0;right=0;collapsible=0;dropTarget=0;fillColor=none;points=[[0,0.5],[1,0.5]];portConstraint=eastwest;fontColor=default;spacingRight=2;spacingLeft=2;" parent="I66DchT4x0AkGHDDOi4h-74" vertex="1">
          <mxGeometry y="104" width="160" height="36" as="geometry" />
        </mxCell>
        <mxCell id="I66DchT4x0AkGHDDOi4h-100" value="mediocrity" style="shape=partialRectangle;html=1;whiteSpace=wrap;connectable=0;overflow=hidden;fillColor=none;top=0;left=0;bottom=0;right=0;pointerEvents=1;fontColor=default;align=center;spacingRight=2;spacingLeft=2;" parent="I66DchT4x0AkGHDDOi4h-99" vertex="1">
          <mxGeometry width="80" height="36" as="geometry">
            <mxRectangle width="80" height="36" as="alternateBounds" />
          </mxGeometry>
        </mxCell>
        <mxCell id="I66DchT4x0AkGHDDOi4h-101" value="4506" style="shape=partialRectangle;html=1;whiteSpace=wrap;connectable=0;overflow=hidden;fillColor=none;top=0;left=0;bottom=0;right=0;pointerEvents=1;fontColor=default;align=right;spacingRight=2;spacingLeft=2;" parent="I66DchT4x0AkGHDDOi4h-99" vertex="1">
          <mxGeometry x="80" width="80" height="36" as="geometry">
            <mxRectangle width="80" height="36" as="alternateBounds" />
          </mxGeometry>
        </mxCell>
        <mxCell id="I66DchT4x0AkGHDDOi4h-90" value="" style="shape=tableRow;horizontal=0;startSize=0;swimlaneHead=0;swimlaneBody=0;top=0;left=0;bottom=0;right=0;collapsible=0;dropTarget=0;fillColor=none;points=[[0,0.5],[1,0.5]];portConstraint=eastwest;fontColor=default;spacingRight=2;spacingLeft=2;" parent="I66DchT4x0AkGHDDOi4h-74" vertex="1">
          <mxGeometry y="140" width="160" height="38" as="geometry" />
        </mxCell>
        <mxCell id="I66DchT4x0AkGHDDOi4h-91" value="meditate" style="shape=partialRectangle;html=1;whiteSpace=wrap;connectable=0;overflow=hidden;fillColor=none;top=0;left=0;bottom=0;right=0;pointerEvents=1;fontColor=default;align=center;spacingRight=2;spacingLeft=2;" parent="I66DchT4x0AkGHDDOi4h-90" vertex="1">
          <mxGeometry width="80" height="38" as="geometry">
            <mxRectangle width="80" height="38" as="alternateBounds" />
          </mxGeometry>
        </mxCell>
        <mxCell id="I66DchT4x0AkGHDDOi4h-92" value="9200" style="shape=partialRectangle;html=1;whiteSpace=wrap;connectable=0;overflow=hidden;fillColor=none;top=0;left=0;bottom=0;right=0;pointerEvents=1;fontColor=default;align=right;spacingRight=2;spacingLeft=2;" parent="I66DchT4x0AkGHDDOi4h-90" vertex="1">
          <mxGeometry x="80" width="80" height="38" as="geometry">
            <mxRectangle width="80" height="38" as="alternateBounds" />
          </mxGeometry>
        </mxCell>
        <mxCell id="I66DchT4x0AkGHDDOi4h-93" value="" style="shape=tableRow;horizontal=0;startSize=0;swimlaneHead=0;swimlaneBody=0;top=0;left=0;bottom=0;right=0;collapsible=0;dropTarget=0;fillColor=none;points=[[0,0.5],[1,0.5]];portConstraint=eastwest;fontColor=default;spacingRight=2;spacingLeft=2;" parent="I66DchT4x0AkGHDDOi4h-74" vertex="1">
          <mxGeometry y="178" width="160" height="37" as="geometry" />
        </mxCell>
        <mxCell id="I66DchT4x0AkGHDDOi4h-94" value="medium" style="shape=partialRectangle;html=1;whiteSpace=wrap;connectable=0;overflow=hidden;fillColor=none;top=0;left=0;bottom=0;right=0;pointerEvents=1;fontColor=default;align=center;spacingRight=2;spacingLeft=2;" parent="I66DchT4x0AkGHDDOi4h-93" vertex="1">
          <mxGeometry width="80" height="37" as="geometry">
            <mxRectangle width="80" height="37" as="alternateBounds" />
          </mxGeometry>
        </mxCell>
        <mxCell id="I66DchT4x0AkGHDDOi4h-95" value="2311" style="shape=partialRectangle;html=1;whiteSpace=wrap;connectable=0;overflow=hidden;fillColor=none;top=0;left=0;bottom=0;right=0;pointerEvents=1;fontColor=default;align=right;spacingRight=2;spacingLeft=2;" parent="I66DchT4x0AkGHDDOi4h-93" vertex="1">
          <mxGeometry x="80" width="80" height="37" as="geometry">
            <mxRectangle width="80" height="37" as="alternateBounds" />
          </mxGeometry>
        </mxCell>
        <mxCell id="I66DchT4x0AkGHDDOi4h-96" value="" style="shape=tableRow;horizontal=0;startSize=0;swimlaneHead=0;swimlaneBody=0;top=0;left=0;bottom=0;right=0;collapsible=0;dropTarget=0;fillColor=none;points=[[0,0.5],[1,0.5]];portConstraint=eastwest;fontColor=default;spacingRight=2;spacingLeft=2;" parent="I66DchT4x0AkGHDDOi4h-74" vertex="1">
          <mxGeometry y="215" width="160" height="37" as="geometry" />
        </mxCell>
        <mxCell id="I66DchT4x0AkGHDDOi4h-97" value="medivac" style="shape=partialRectangle;html=1;whiteSpace=wrap;connectable=0;overflow=hidden;fillColor=none;top=0;left=0;bottom=0;right=0;pointerEvents=1;fontColor=default;align=center;spacingRight=2;spacingLeft=2;" parent="I66DchT4x0AkGHDDOi4h-96" vertex="1">
          <mxGeometry width="80" height="37" as="geometry">
            <mxRectangle width="80" height="37" as="alternateBounds" />
          </mxGeometry>
        </mxCell>
        <mxCell id="I66DchT4x0AkGHDDOi4h-98" value="8180" style="shape=partialRectangle;html=1;whiteSpace=wrap;connectable=0;overflow=hidden;fillColor=none;top=0;left=0;bottom=0;right=0;pointerEvents=1;fontColor=default;align=right;spacingRight=2;spacingLeft=2;" parent="I66DchT4x0AkGHDDOi4h-96" vertex="1">
          <mxGeometry x="80" width="80" height="37" as="geometry">
            <mxRectangle width="80" height="37" as="alternateBounds" />
          </mxGeometry>
        </mxCell>
        <mxCell id="I66DchT4x0AkGHDDOi4h-104" value="" style="shape=tableRow;horizontal=0;startSize=0;swimlaneHead=0;swimlaneBody=0;top=0;left=0;bottom=0;right=0;collapsible=0;dropTarget=0;fillColor=none;points=[[0,0.5],[1,0.5]];portConstraint=eastwest;fontColor=default;spacingRight=2;spacingLeft=2;" parent="I66DchT4x0AkGHDDOi4h-74" vertex="1">
          <mxGeometry y="252" width="160" height="37" as="geometry" />
        </mxCell>
        <mxCell id="I66DchT4x0AkGHDDOi4h-105" value="..." style="shape=partialRectangle;html=1;whiteSpace=wrap;connectable=0;overflow=hidden;fillColor=none;top=0;left=0;bottom=0;right=0;pointerEvents=1;fontColor=default;align=center;spacingRight=2;spacingLeft=2;" parent="I66DchT4x0AkGHDDOi4h-104" vertex="1">
          <mxGeometry width="80" height="37" as="geometry">
            <mxRectangle width="80" height="37" as="alternateBounds" />
          </mxGeometry>
        </mxCell>
        <mxCell id="I66DchT4x0AkGHDDOi4h-106" value="..." style="shape=partialRectangle;html=1;whiteSpace=wrap;connectable=0;overflow=hidden;fillColor=none;top=0;left=0;bottom=0;right=0;pointerEvents=1;fontColor=default;align=right;spacingRight=2;spacingLeft=2;" parent="I66DchT4x0AkGHDDOi4h-104" vertex="1">
          <mxGeometry x="80" width="80" height="37" as="geometry">
            <mxRectangle width="80" height="37" as="alternateBounds" />
          </mxGeometry>
        </mxCell>
        <mxCell id="8DkL4rAYdG8PtnpfrYct-1" value="root" style="ellipse;whiteSpace=wrap;html=1;align=center;fontColor=default;" parent="1" vertex="1">
          <mxGeometry x="215" y="240" width="100" height="40" as="geometry" />
        </mxCell>
        <mxCell id="8DkL4rAYdG8PtnpfrYct-3" value="grand" style="ellipse;whiteSpace=wrap;html=1;align=center;fontColor=default;" parent="1" vertex="1">
          <mxGeometry x="115" y="320" width="100" height="40" as="geometry" />
        </mxCell>
        <mxCell id="8DkL4rAYdG8PtnpfrYct-4" value="" style="curved=1;endArrow=classic;html=1;rounded=0;fontColor=default;exitX=0.5;exitY=1;exitDx=0;exitDy=0;entryX=0.5;entryY=0;entryDx=0;entryDy=0;" parent="1" source="8DkL4rAYdG8PtnpfrYct-1" target="8DkL4rAYdG8PtnpfrYct-3" edge="1">
          <mxGeometry width="50" height="50" relative="1" as="geometry">
            <mxPoint x="465" y="440" as="sourcePoint" />
            <mxPoint x="515" y="390" as="targetPoint" />
            <Array as="points">
              <mxPoint x="205" y="290" />
            </Array>
          </mxGeometry>
        </mxCell>
        <mxCell id="8DkL4rAYdG8PtnpfrYct-5" value="meditate" style="ellipse;whiteSpace=wrap;html=1;align=center;fontColor=default;" parent="1" vertex="1">
          <mxGeometry x="315" y="320" width="100" height="40" as="geometry" />
        </mxCell>
        <mxCell id="8DkL4rAYdG8PtnpfrYct-6" value="" style="curved=1;endArrow=classic;html=1;rounded=0;fontColor=default;exitX=0.5;exitY=1;exitDx=0;exitDy=0;entryX=0.5;entryY=0;entryDx=0;entryDy=0;" parent="1" source="8DkL4rAYdG8PtnpfrYct-1" target="8DkL4rAYdG8PtnpfrYct-5" edge="1">
          <mxGeometry width="50" height="50" relative="1" as="geometry">
            <mxPoint x="275" y="290" as="sourcePoint" />
            <mxPoint x="175" y="330" as="targetPoint" />
            <Array as="points">
              <mxPoint x="345" y="300" />
            </Array>
          </mxGeometry>
        </mxCell>
        <mxCell id="8DkL4rAYdG8PtnpfrYct-7" value="" style="curved=1;endArrow=classic;html=1;rounded=0;fontColor=default;entryX=0.5;entryY=0;entryDx=0;entryDy=0;exitX=0.5;exitY=1;exitDx=0;exitDy=0;" parent="1" source="8DkL4rAYdG8PtnpfrYct-5" target="8DkL4rAYdG8PtnpfrYct-8" edge="1">
          <mxGeometry width="50" height="50" relative="1" as="geometry">
            <mxPoint x="355" y="380" as="sourcePoint" />
            <mxPoint x="265" y="400" as="targetPoint" />
            <Array as="points">
              <mxPoint x="305" y="370" />
            </Array>
          </mxGeometry>
        </mxCell>
        <mxCell id="8DkL4rAYdG8PtnpfrYct-8" value="mediocrity" style="ellipse;whiteSpace=wrap;html=1;align=center;fontColor=default;" parent="1" vertex="1">
          <mxGeometry x="215" y="400" width="100" height="40" as="geometry" />
        </mxCell>
        <mxCell id="8DkL4rAYdG8PtnpfrYct-9" value="" style="curved=1;endArrow=classic;html=1;rounded=0;fontColor=default;entryX=0.5;entryY=0;entryDx=0;entryDy=0;exitX=0.5;exitY=1;exitDx=0;exitDy=0;" parent="1" source="8DkL4rAYdG8PtnpfrYct-5" edge="1">
          <mxGeometry width="50" height="50" relative="1" as="geometry">
            <mxPoint x="365" y="370" as="sourcePoint" />
            <mxPoint x="465" y="400" as="targetPoint" />
            <Array as="points">
              <mxPoint x="445" y="380" />
            </Array>
          </mxGeometry>
        </mxCell>
        <mxCell id="8DkL4rAYdG8PtnpfrYct-10" value="small" style="ellipse;whiteSpace=wrap;html=1;align=center;fontColor=default;" parent="1" vertex="1">
          <mxGeometry x="415" y="400" width="100" height="40" as="geometry" />
        </mxCell>
        <mxCell id="8DkL4rAYdG8PtnpfrYct-11" value="" style="curved=1;endArrow=classic;html=1;rounded=0;fontColor=default;entryX=0;entryY=0.5;entryDx=0;entryDy=0;exitX=1;exitY=0.5;exitDx=0;exitDy=0;dashed=1;" parent="1" source="8DkL4rAYdG8PtnpfrYct-10" target="I66DchT4x0AkGHDDOi4h-104" edge="1">
          <mxGeometry width="50" height="50" relative="1" as="geometry">
            <mxPoint x="311" y="370" as="sourcePoint" />
            <mxPoint x="411" y="410" as="targetPoint" />
            <Array as="points">
              <mxPoint x="540" y="440" />
            </Array>
          </mxGeometry>
        </mxCell>
        <mxCell id="8DkL4rAYdG8PtnpfrYct-12" value="" style="curved=1;endArrow=classic;html=1;rounded=0;fontColor=default;entryX=0;entryY=0.5;entryDx=0;entryDy=0;exitX=1;exitY=0.5;exitDx=0;exitDy=0;dashed=1;" parent="1" source="8DkL4rAYdG8PtnpfrYct-8" target="I66DchT4x0AkGHDDOi4h-99" edge="1">
          <mxGeometry width="50" height="50" relative="1" as="geometry">
            <mxPoint x="461" y="430" as="sourcePoint" />
            <mxPoint x="621" y="386.5" as="targetPoint" />
            <Array as="points">
              <mxPoint x="521" y="320" />
            </Array>
          </mxGeometry>
        </mxCell>
        <mxCell id="8DkL4rAYdG8PtnpfrYct-13" value="" style="curved=1;endArrow=classic;html=1;rounded=0;fontColor=default;entryX=0;entryY=0.5;entryDx=0;entryDy=0;exitX=1;exitY=0.5;exitDx=0;exitDy=0;dashed=1;" parent="1" source="8DkL4rAYdG8PtnpfrYct-3" target="I66DchT4x0AkGHDDOi4h-75" edge="1">
          <mxGeometry width="50" height="50" relative="1" as="geometry">
            <mxPoint x="261" y="430" as="sourcePoint" />
            <mxPoint x="621" y="312" as="targetPoint" />
            <Array as="points">
              <mxPoint x="471" y="250" />
            </Array>
          </mxGeometry>
        </mxCell>
        <mxCell id="8DkL4rAYdG8PtnpfrYct-15" value="" style="curved=1;endArrow=classic;html=1;rounded=0;fontColor=default;entryX=0.5;entryY=0;entryDx=0;entryDy=0;exitX=0.5;exitY=1;exitDx=0;exitDy=0;" parent="1" target="8DkL4rAYdG8PtnpfrYct-16" edge="1">
          <mxGeometry width="50" height="50" relative="1" as="geometry">
            <mxPoint x="165" y="360" as="sourcePoint" />
            <mxPoint x="65" y="400" as="targetPoint" />
            <Array as="points">
              <mxPoint x="105" y="370" />
            </Array>
          </mxGeometry>
        </mxCell>
        <mxCell id="8DkL4rAYdG8PtnpfrYct-16" value="..." style="ellipse;whiteSpace=wrap;html=1;align=center;fontColor=default;" parent="1" vertex="1">
          <mxGeometry x="15" y="400" width="100" height="40" as="geometry" />
        </mxCell>
        <mxCell id="8DkL4rAYdG8PtnpfrYct-17" value="&lt;font style=&quot;font-size: 14px&quot;&gt;Sparse In-Memory Index&lt;/font&gt;" style="text;html=1;strokeColor=default;fillColor=none;align=center;verticalAlign=middle;whiteSpace=wrap;rounded=0;fontColor=default;fontStyle=1;labelBorderColor=none;spacing=2;strokeWidth=2;" parent="1" vertex="1">
          <mxGeometry x="176" y="207" width="178" height="30" as="geometry" />
        </mxCell>
        <mxCell id="NjsudWIWoi5uVisPwLOh-1" value="" style="strokeWidth=2;html=1;shape=mxgraph.flowchart.annotation_2;align=left;labelPosition=right;pointerEvents=1;rotation=-180;fontColor=#00994D;strokeColor=#00994D;" parent="1" vertex="1">
          <mxGeometry x="781" y="250" width="50" height="180" as="geometry" />
        </mxCell>
        <mxCell id="NjsudWIWoi5uVisPwLOh-2" value="Potential Compression" style="text;html=1;align=center;verticalAlign=middle;resizable=0;points=[];autosize=1;rotation=-90;fontColor=#00994D;" parent="1" vertex="1">
          <mxGeometry x="771" y="330" width="140" height="20" as="geometry" />
        </mxCell>
        <mxCell id="59zplmNoZ6mH7DEZuacR-5" value="" style="curved=1;endArrow=classic;html=1;rounded=0;fontColor=default;entryX=0;entryY=0.5;entryDx=0;entryDy=0;exitX=1;exitY=0.5;exitDx=0;exitDy=0;dashed=1;" edge="1" parent="1" source="8DkL4rAYdG8PtnpfrYct-5" target="I66DchT4x0AkGHDDOi4h-90">
          <mxGeometry width="50" height="50" relative="1" as="geometry">
            <mxPoint x="325" y="430" as="sourcePoint" />
            <mxPoint x="621" y="312" as="targetPoint" />
            <Array as="points">
              <mxPoint x="531" y="330" />
            </Array>
          </mxGeometry>
        </mxCell>
      </root>
    </mxGraphModel>
  </diagram>
</mxfile>
